<?xml version="1.0" encoding="UTF-8" standalone="no"?>
<!-- Created with Inkscape (http://www.inkscape.org/) -->

<svg
   xmlns:dc="http://purl.org/dc/elements/1.1/"
   xmlns:cc="http://creativecommons.org/ns#"
   xmlns:rdf="http://www.w3.org/1999/02/22-rdf-syntax-ns#"
   xmlns:svg="http://www.w3.org/2000/svg"
   xmlns="http://www.w3.org/2000/svg"
   xmlns:sodipodi="http://sodipodi.sourceforge.net/DTD/sodipodi-0.dtd"
   xmlns:inkscape="http://www.inkscape.org/namespaces/inkscape"
   width="500.08829"
   height="141.2588"
   viewBox="0 0 132.31502 37.374726"
   version="1.1"
   id="svg8"
   inkscape:version="0.92.3 (2405546, 2018-03-11)"
   sodipodi:docname="chegg.svg">
  <defs
     id="defs2" />
  <sodipodi:namedview
     id="base"
     pagecolor="#00ffff"
     bordercolor="#666666"
     borderopacity="1.0"
     inkscape:pageopacity="0"
     inkscape:pageshadow="2"
     inkscape:zoom="0.35"
     inkscape:cx="292.90131"
     inkscape:cy="-46.513446"
     inkscape:document-units="px"
     inkscape:current-layer="layer1"
     showgrid="false"
     units="px"
     fit-margin-top="0.5"
     fit-margin-left="0.5"
     fit-margin-right="0.5"
     fit-margin-bottom="0.5"
     inkscape:window-width="1920"
     inkscape:window-height="1001"
     inkscape:window-x="-9"
     inkscape:window-y="-9"
     inkscape:window-maximized="1" />
  <metadata
     id="metadata5">
    <rdf:RDF>
      <cc:Work
         rdf:about="">
        <dc:format>image/svg+xml</dc:format>
        <dc:type
           rdf:resource="http://purl.org/dc/dcmitype/StillImage" />
        <dc:title></dc:title>
      </cc:Work>
    </rdf:RDF>
  </metadata>
  <g
     inkscape:label="Layer 1"
     inkscape:groupmode="layer"
     id="layer1"
     transform="translate(-28.336529,-99.151919)">
    <g
       id="g10"
       transform="matrix(0.35277777,0,0,-0.35277777,28.468785,136.39412)">
      <g
         id="g12"
         transform="scale(0.1)">
        <path
           d="m 3743.16,850.16 c -0.46,-56.043 -44.94,-100.152 -101.02,-99.676 -55.99,0.493 -100.37,45.286 -99.93,101.383 0.46,56.059 45.55,99.571 102.18,99.071 55.46,-0.454 99.21,-44.696 98.77,-100.778 z m -175.88,1.488 c -0.41,-44.503 32.11,-80.113 75.66,-80.464 42.36,-0.934 74.83,34.695 75.13,78.629 0.37,44.464 -31.52,80.648 -75.02,81.035 -42.35,0.398 -75.4,-35.305 -75.77,-79.2 z m 59.8,-52.265 -22.67,0.199 0.77,99.949 c 8.97,1.086 21.49,2.828 37.61,2.664 18.49,-0.152 26.8,-3.25 33.33,-8.136 5.96,-4.344 10.06,-11.707 9.95,-21.489 -0.08,-12.148 -9.06,-20.004 -20.45,-23.547 v -1.277 c 9.49,-3.062 14.2,-11.051 17.08,-24.496 2.85,-15.266 5.19,-20.793 6.97,-24.422 l -23.84,0.242 c -2.95,3.586 -4.72,12.176 -7.59,24.379 -1.7,10.352 -7.6,15.336 -20.16,15.43 l -10.71,0.086 z m 1.08,56.074 10.66,-0.148 c 12.55,-0.067 22.72,4.093 22.79,14.457 0.07,9.16 -6.43,15.261 -20.74,15.406 -5.95,0.035 -10.13,-0.547 -12.54,-1.117 l -0.17,-28.598"
           style="fill:#f58113;fill-opacity:1;fill-rule:evenodd;stroke:none"
           id="path14"
           inkscape:connector-curvature="0" />
        <path
           d="M 608.082,209.598 C 459.707,150.934 255.641,157.82 132.211,271.609 1.625,392.027 -24.2227,586.258 19.8711,758.836 45.043,857.383 115.613,955.504 208.52,1004.66 c 120.05,63.52 287.46,63.84 421.418,-3.96 53.054,-26.86 105.14,-85.72 133.941,-143.317 16.008,-31.992 33.875,-89.422 3.332,-114.113 C 712.563,699.094 606.73,710.176 574.809,738.848 514.664,792.926 459.602,882.188 366.438,838.566 294.973,805.094 262.324,717.906 261.52,637.043 c -0.918,-93.344 0.218,-195.289 87.972,-243.617 43.403,-23.918 116.461,-23.145 153.672,14.394 33.613,33.914 62.285,93.985 104.918,99.66 18.395,2.434 184.484,21.891 181.227,-43.195 -5.407,-108.5 -87.961,-209.289 -181.227,-254.687"
           style="fill:#f58113;fill-opacity:1;fill-rule:evenodd;stroke:none"
           id="path16"
           inkscape:connector-curvature="0" />
        <path
           d="m 1410.29,212.926 c -45.22,-14.414 -94.79,-17.606 -133.54,5.539 -52.56,31.414 -40.61,102.168 -39.22,157.246 2.31,90.863 26.51,205.949 -60.41,253.582 -27.54,12.184 -63.8,-0.918 -77.36,-13.301 -13.56,-12.383 -30.46,-40.301 -36.03,-67.527 -13.78,-104.094 9.72,-256.965 -33.02,-314.563 -25.35,-34.179 -123.858,-31.621 -154.73,-13.972 -56.699,32.402 -46.863,120.547 -47.539,181.258 -1.707,154.644 -6.707,388.515 10.329,582.675 5.878,66.847 151.304,96.187 205.66,16.327 11.77,-17.299 11.95,-87.245 13.1,-107.342 5.15,-88.946 41.81,-93.633 59.18,-89.676 93.91,32.586 220.78,55.566 287.23,-36.582 83.58,-115.934 55.15,-457.922 50.87,-481.242 -8.08,-44.09 -28.29,-67.246 -44.52,-72.422"
           style="fill:#f58113;fill-opacity:1;fill-rule:evenodd;stroke:none"
           id="path18"
           inkscape:connector-curvature="0" />
        <path
           d="m 2827.16,187.469 c -8.15,-64.934 -51.98,-136.3088 -115.52,-157.2502 -128.03,-42.1876 -306.09,-48.8086 -414.42,36.5468 -10.42,8.2305 -16.46,12.918 -23.32,22.1446 -15.54,20.9488 -15.77,50.2968 0,63.1168 40.44,32.871 123.45,39.629 193.72,8.821 62.13,-27.246 112.71,-10.118 130.61,26.621 13.5,27.691 -2.18,67.449 -64.64,57.722 -70.7,-11.023 -180.96,-29.656 -268.15,79.582 -41.09,51.485 -59.45,111.993 -62.52,177.157 -4.95,104.117 17.42,197.238 89.01,267.988 87.23,86.176 230,55.367 327.5,21.031 57.23,17.719 195.15,58.699 217.25,-44.297 1.45,-6.742 12.9,-380.511 -9.52,-559.183 z m -248,437.371 c -28.58,31.223 -81.55,30.777 -109.17,4.453 -26.13,-24.879 -37.76,-57.195 -38.53,-93.305 -0.98,-45.582 11.82,-85.484 42.77,-108.238 24.49,-18.008 58.12,-21.309 84.8,-5.547 35.14,20.774 53.8,65.27 56.14,105.211 2.17,36.606 -11.72,70.863 -36.01,97.426"
           style="fill:#f58113;fill-opacity:1;fill-rule:evenodd;stroke:none"
           id="path20"
           inkscape:connector-curvature="0" />
        <path
           d="m 3504.09,187.469 c -8.15,-64.934 -51.95,-136.3088 -115.5,-157.2502 -128.03,-42.1876 -306.09,-48.8086 -414.42,36.5468 -10.42,8.2305 -16.46,12.918 -23.32,22.1446 -15.53,20.9488 -15.77,50.2968 0,63.1168 40.43,32.871 123.45,39.629 193.73,8.821 62.11,-27.246 112.68,-10.118 130.6,26.621 13.51,27.691 -2.18,67.449 -64.64,57.722 -70.71,-11.023 -180.96,-29.656 -268.14,79.582 -41.1,51.485 -59.46,111.993 -62.55,177.157 -4.93,104.117 17.42,197.238 89.03,267.988 87.23,86.176 230,55.367 327.5,21.031 57.23,17.719 195.16,58.699 217.26,-44.297 1.44,-6.742 12.9,-380.511 -9.55,-559.183 z m -248,437.371 c -28.56,31.223 -81.52,30.777 -109.15,4.453 -26.12,-24.879 -37.76,-57.195 -38.53,-93.305 -0.97,-45.582 11.82,-85.484 42.78,-108.238 24.48,-18.008 58.11,-21.309 84.77,-5.547 35.16,20.774 53.82,65.27 56.16,105.211 2.17,36.606 -11.71,70.863 -36.03,97.426"
           style="fill:#f58113;fill-opacity:1;fill-rule:evenodd;stroke:none"
           id="path22"
           inkscape:connector-curvature="0" />
        <path
           d="m 1796.02,452.117 c -27.71,-7.637 -42.19,-43.156 -26.5,-68.664 22.47,-36.543 69.88,-48.672 111.27,-34.316 66.45,23.027 122.95,81.289 210.9,38.75 27.76,-13.407 33.82,-52.012 19.1,-74.199 -87.98,-132.469 -265.87,-138.223 -405.93,-102.958 -97.46,24.532 -177.47,124.598 -193.96,226.993 -20.59,127.91 13.2,252.062 116.6,328.867 138.09,102.551 367.79,86.082 479.03,-63.117 41.04,-55.035 78.8,-184.489 41.34,-225.887 -75.83,-83.82 -230.77,7.894 -351.85,-25.469 z m -18.03,197.09 c -8.86,-13.996 -6.67,-44.297 13.45,-55.602 34.92,-19.64 80.45,-14.199 104.19,9.911 14.1,14.308 5.48,36.988 -1.65,48.238 -21.1,33.324 -92.79,34.094 -115.99,-2.547"
           style="fill:#f58113;fill-opacity:1;fill-rule:evenodd;stroke:none"
           id="path24"
           inkscape:connector-curvature="0" />
      </g>
    </g>
  </g>
</svg>
